<?xml version="1.0" standalone="no"?>
<!DOCTYPE svg PUBLIC "-//W3C//DTD SVG 20010904//EN"
 "http://www.w3.org/TR/2001/REC-SVG-20010904/DTD/svg10.dtd">
<svg version="1.0" xmlns="http://www.w3.org/2000/svg"
 width="1393.000000pt" height="1393.000000pt" viewBox="0 0 1393.000000 1393.000000"
 preserveAspectRatio="xMidYMid meet">
<metadata>
Created by potrace 1.14, written by Peter Selinger 2001-2017
</metadata>
<g transform="translate(0.000000,1393.000000) scale(0.100000,-0.100000)"
fill="#000000" stroke="none">
<path d="M4805 13405 c-371 -229 -696 -589 -854 -945 -110 -246 -155 -472
-155 -770 0 -159 8 -271 29 -380 3 -14 8 -43 11 -65 15 -105 112 -437 144
-495 7 -13 10 -12 16 5 15 39 126 215 190 302 64 87 65 89 58 138 -3 28 -7 52
-9 55 -7 11 -19 226 -19 330 0 106 11 308 19 349 2 12 9 55 15 94 18 128 21
140 61 295 97 373 264 720 498 1031 58 78 74 101 69 100 -2 0 -34 -20 -73 -44z"/>
<path d="M9097 13389 c210 -271 382 -597 487 -928 30 -91 79 -296 92 -376 4
-27 8 -52 9 -55 1 -3 5 -32 9 -65 4 -33 9 -73 12 -90 9 -60 12 -472 3 -540 -5
-38 -12 -92 -15 -120 -4 -27 -7 -55 -7 -61 0 -6 33 -57 75 -115 41 -57 101
-148 133 -202 32 -54 59 -96 60 -95 10 11 98 289 110 348 2 8 12 56 23 105 20
91 28 139 38 230 2 28 7 66 10 85 6 45 6 324 0 370 -7 48 -19 132 -21 150 -11
68 -17 97 -21 110 -3 8 -8 26 -10 40 -19 99 -122 342 -200 473 -171 286 -493
601 -788 772 l-49 29 50 -65z"/>
<path d="M3254 11862 c-213 -339 -370 -736 -408 -1027 -3 -22 -8 -49 -10 -60
-25 -122 -25 -478 -1 -605 3 -13 7 -42 10 -65 34 -233 157 -563 304 -815 39
-67 147 -231 178 -270 181 -232 394 -457 568 -601 50 -40 92 -76 95 -79 46
-49 385 -270 413 -270 3 0 -11 17 -30 38 -303 325 -501 710 -587 1142 -14 69
-28 152 -31 185 -3 33 -8 76 -11 95 -7 47 -7 318 0 329 3 5 -26 57 -65 116
-208 314 -352 701 -394 1054 -4 30 -9 63 -11 75 -10 41 -13 462 -4 539 16 147
28 231 40 276 5 19 8 36 7 37 -2 2 -30 -41 -63 -94z"/>
<path d="M10624 11923 c35 -176 49 -326 50 -513 0 -121 -11 -318 -18 -341 -3
-8 -7 -38 -10 -67 -36 -323 -218 -792 -415 -1066 l-35 -49 -2 -186 c-1 -102
-4 -206 -8 -231 -29 -193 -41 -251 -72 -368 -64 -245 -166 -472 -309 -687 -77
-116 -86 -128 -203 -262 -40 -45 -70 -83 -67 -83 6 0 100 52 150 83 17 11 106
72 164 114 65 47 185 145 266 219 417 376 706 782 863 1209 52 142 90 281 108
395 3 19 7 42 9 50 27 99 27 530 0 660 -3 14 -7 41 -10 60 -8 60 -63 271 -93
360 -42 121 -95 249 -157 371 -47 94 -67 131 -112 204 -7 11 -30 50 -53 88
-22 37 -43 67 -46 67 -3 0 -3 -12 0 -27z"/>
<path d="M2366 10005 c-36 -299 -49 -516 -49 -825 0 -210 8 -440 18 -510 2
-14 6 -56 10 -95 3 -38 10 -95 15 -125 5 -30 12 -73 15 -95 9 -62 16 -106 21
-129 3 -11 11 -55 19 -96 9 -41 24 -109 36 -150 11 -41 22 -84 24 -95 18 -81
116 -355 167 -465 95 -205 143 -294 243 -445 302 -461 713 -808 1241 -1047 86
-39 286 -117 318 -124 11 -2 47 -13 80 -24 69 -22 286 -74 361 -86 28 -4 52
-8 55 -9 21 -6 139 -18 153 -16 9 1 17 -2 17 -7 0 -5 -8 -12 -17 -15 -185 -54
-269 -77 -295 -81 -18 -3 -60 -10 -93 -16 -189 -32 -481 -34 -652 -4 -361 64
-685 205 -977 426 -50 38 -109 85 -131 106 -74 70 -76 70 -56 15 42 -110 94
-221 154 -328 44 -78 177 -280 204 -310 10 -11 36 -43 57 -70 65 -81 235 -247
326 -316 321 -246 668 -363 1075 -362 154 0 273 12 480 50 66 11 265 73 342
106 433 183 721 507 803 902 38 179 42 475 10 605 -5 19 -11 49 -14 65 -12 74
-36 142 -91 260 -107 228 -328 435 -605 568 -85 41 -125 58 -140 61 -3 1 -9 4
-15 7 -5 4 -46 18 -90 32 -222 72 -405 111 -695 147 -528 66 -1018 286 -1369
615 -185 173 -333 353 -466 569 -124 201 -237 445 -318 686 -44 132 -119 415
-131 495 -4 22 -12 74 -20 115 l-13 75 -7 -60z"/>
<path d="M11550 10050 c0 -5 5 -10 11 -10 5 0 7 5 4 10 -3 6 -8 10 -11 10 -2
0 -4 -4 -4 -10z"/>
<path d="M11549 10008 c-3 -87 -73 -389 -136 -583 -294 -912 -884 -1552 -1663
-1803 -149 -48 -339 -92 -460 -106 -116 -14 -267 -37 -366 -57 -28 -5 -64 -12
-80 -15 -63 -11 -194 -47 -294 -81 -415 -140 -697 -359 -845 -658 -46 -93 -89
-214 -99 -280 -4 -21 -8 -40 -10 -44 -19 -30 -27 -349 -13 -486 37 -362 240
-683 567 -897 89 -58 283 -154 330 -164 3 0 14 -4 25 -8 60 -23 197 -61 250
-70 17 -2 55 -9 85 -15 212 -41 478 -45 697 -11 493 79 933 386 1258 879 74
112 225 393 225 418 0 6 6 23 14 39 38 78 31 80 -45 13 -250 -219 -542 -384
-836 -470 -77 -23 -73 -22 -168 -43 -68 -15 -85 -18 -197 -33 -69 -10 -356 -9
-435 0 -128 15 -150 19 -233 38 -117 26 -290 81 -290 91 0 4 12 8 28 9 152 4
490 81 712 161 892 321 1512 949 1824 1847 91 263 163 585 191 861 3 30 8 69
11 86 25 165 25 968 0 1124 -2 14 -7 57 -10 95 -12 139 -19 185 -27 185 -5 0
-9 -10 -10 -22z"/>
<path d="M3364 4231 c-2 -2 -4 -339 -4 -747 l0 -743 125 0 125 -1 0 53 c1 28
2 183 4 342 2 270 3 293 23 336 12 25 38 60 59 77 70 58 219 68 289 20 63 -43
66 -58 67 -464 l1 -364 126 1 126 1 -1 381 c0 210 -4 402 -8 427 -29 162 -150
247 -351 248 -151 0 -246 -42 -305 -135 l-29 -45 0 248 c0 137 0 276 0 309
l-1 61 -121 -1 c-66 0 -122 -2 -125 -4z"/>
<path d="M7550 4230 c-4 -3 -7 -339 -7 -746 l0 -741 124 -2 125 -1 -4 81 c-2
58 0 76 7 62 5 -10 31 -39 57 -65 61 -61 137 -86 261 -86 256 0 354 82 391
328 13 84 14 373 1 435 -10 53 -37 139 -51 167 -42 82 -138 127 -286 135 -163
10 -265 -20 -330 -97 -19 -22 -37 -40 -39 -40 -2 0 -4 126 -4 281 0 154 -2
284 -5 288 -6 8 -227 9 -240 1z m619 -653 c70 -33 92 -109 91 -307 -1 -188
-16 -258 -64 -297 -43 -34 -60 -37 -176 -37 -183 0 -217 50 -221 324 -2 187
34 273 136 321 55 26 175 24 234 -4z"/>
<path d="M10321 3799 c-85 -16 -153 -61 -205 -134 -13 -18 -14 -12 -9 52 l5
71 -124 -1 -125 -1 1 -521 1 -520 123 -2 c67 -1 123 1 123 5 1 4 2 158 3 342
2 184 6 351 11 370 20 88 82 141 166 142 90 1 131 -48 134 -157 l2 -60 117 -2
c131 -2 119 -12 117 92 -2 119 -30 202 -88 260 -57 58 -155 82 -252 64z"/>
<path d="M2518 3784 c-80 -15 -159 -53 -193 -91 -67 -76 -98 -207 -98 -423 -1
-171 20 -306 58 -380 60 -117 194 -162 460 -156 190 5 285 32 357 101 51 48
63 83 73 223 l7 82 -29 1 c-99 2 -216 -1 -220 -5 -3 -3 -7 -29 -9 -58 -8 -122
-47 -148 -213 -144 -200 5 -225 39 -225 311 -1 242 12 298 76 331 40 21 171
30 224 15 73 -20 121 -73 126 -140 2 -34 -3 -32 108 -32 33 0 80 0 104 0 l44
1 -4 58 c-10 134 -54 223 -133 265 -95 52 -349 73 -513 41z"/>
<path d="M4780 3785 c-87 -17 -132 -37 -164 -71 -31 -35 -56 -105 -63 -179
l-4 -55 129 1 130 0 6 32 c17 85 78 118 211 113 123 -4 152 -20 180 -101 4
-11 9 -74 11 -139 l3 -119 -32 30 c-18 17 -43 36 -56 43 -97 50 -345 51 -451
2 -104 -47 -158 -130 -167 -257 -12 -162 52 -275 182 -325 50 -20 80 -23 180
-24 177 -1 240 18 309 94 l43 49 -5 -69 -4 -69 126 0 127 1 -1 388 c-2 406 -5
442 -47 525 -38 74 -99 108 -233 132 -64 12 -349 10 -410 -2z m352 -604 c60
-29 82 -62 82 -128 2 -101 -62 -145 -215 -149 -153 -5 -213 22 -226 100 -4 23
-7 47 -6 54 0 6 1 23 2 36 2 36 46 83 94 99 66 23 211 16 269 -12z"/>
<path d="M6164 3786 c-61 -15 -121 -49 -149 -83 -59 -75 -55 -76 -50 8 l5 77
-128 -2 -127 -1 0 -520 0 -520 125 0 125 0 2 315 c1 173 4 335 7 359 9 65 49
127 99 153 58 29 176 34 232 9 67 -30 69 -42 70 -466 l0 -370 127 -2 126 -1 1
331 c1 183 3 345 6 361 21 111 112 174 236 163 70 -6 111 -32 141 -90 21 -41
22 -53 22 -402 l1 -360 125 0 125 0 0 395 c0 465 -2 478 -90 565 -62 62 -122
85 -238 92 -151 10 -261 -35 -322 -129 -16 -26 -33 -47 -36 -47 -4 -1 -9 12
-12 28 -8 38 -51 88 -96 110 -79 40 -224 52 -327 27z"/>
<path d="M8975 3784 c-74 -16 -142 -45 -176 -76 -79 -73 -113 -206 -112 -443
1 -333 72 -478 249 -509 16 -3 50 -10 76 -14 65 -13 271 -13 338 -1 199 36
292 125 299 286 l2 52 -127 -2 -127 -2 -3 -38 c-6 -62 -35 -94 -100 -107 -53
-11 -193 -9 -240 3 -70 18 -102 76 -109 200 l-5 87 356 0 355 0 -2 104 c-1 58
-5 127 -10 153 -5 26 -12 61 -15 77 -22 123 -105 200 -250 230 -86 18 -316 18
-399 0z m275 -178 c105 -9 136 -44 144 -162 l5 -69 -222 1 c-122 1 -225 2
-228 3 -8 1 0 89 13 131 16 53 44 78 102 90 61 12 97 17 111 14 6 -2 39 -5 75
-8z"/>
<path d="M11045 3793 c-164 -20 -240 -70 -270 -174 -16 -58 -22 -167 -12 -214
17 -74 31 -106 64 -142 61 -66 151 -86 449 -97 135 -5 176 -36 176 -132 0 -85
-70 -127 -217 -130 -158 -4 -230 36 -228 126 1 30 -3 40 -16 41 -9 0 -65 1
-126 1 l-110 1 -1 -53 c-3 -163 65 -241 241 -275 104 -20 398 -14 490 10 159
41 217 118 221 295 4 130 -10 184 -61 236 -33 34 -52 44 -110 58 -99 23 -118
25 -225 31 -203 11 -276 25 -284 53 -17 57 -17 92 -1 125 25 53 70 71 189 74
132 4 173 -8 192 -52 8 -19 14 -44 14 -55 0 -22 -2 -22 150 -22 44 0 85 1 91
1 11 1 8 76 -4 128 -21 85 -81 132 -202 159 -33 7 -363 13 -410 7z"/>
<path d="M3520 2428 c-82 -13 -149 -55 -187 -118 -35 -57 -44 -103 -46 -245
l-2 -90 -78 0 -77 0 0 -66 0 -65 78 0 77 1 2 -410 c1 -225 2 -432 2 -460 l1
-50 70 1 c39 1 73 4 77 8 3 3 7 210 7 458 l1 453 130 0 c79 -1 133 3 137 10
14 20 6 105 -11 113 -9 4 -71 7 -137 6 l-122 -1 3 111 c2 125 10 151 55 189
33 28 51 31 157 28 l61 -2 0 61 c-1 37 -6 64 -13 66 -23 9 -131 10 -185 2z"/>
<path d="M11070 2341 c-80 -26 -142 -82 -178 -160 -45 -97 -19 -223 60 -298
60 -57 114 -78 198 -78 117 1 199 49 253 150 29 54 31 182 4 237 -26 52 -76
102 -128 129 -47 24 -163 35 -209 20z m162 -61 c16 0 90 -74 105 -104 25 -47
23 -151 -4 -201 -40 -76 -107 -115 -188 -111 -142 8 -232 138 -191 278 29 102
130 166 231 146 22 -4 43 -7 47 -8z"/>
<path d="M11073 2212 c-16 -2 -23 -11 -24 -25 -1 -27 -1 -227 0 -245 1 -7 13
-11 31 -10 29 2 30 4 30 54 0 57 9 66 50 52 18 -6 29 -21 40 -56 14 -43 18
-47 48 -49 17 -1 32 2 32 6 0 23 -32 111 -45 121 -13 11 -11 15 10 32 44 34
22 115 -32 119 -43 4 -120 4 -140 1z m108 -52 c42 -23 12 -70 -45 -70 -23 0
-26 4 -26 34 0 43 29 58 71 36z"/>
<path d="M10209 2206 c0 -12 -1 -68 -2 -126 l-2 -105 -50 -1 c-99 -3 -91 2
-89 -61 1 -32 2 -61 3 -64 0 -3 27 -5 59 -4 31 1 62 0 68 -2 9 -3 12 -103 12
-361 0 -364 4 -410 40 -464 47 -71 120 -100 257 -102 88 -1 107 2 156 25 97
45 138 123 143 272 l4 87 -74 0 c-74 0 -74 0 -74 -27 -3 -155 -17 -193 -85
-218 -79 -31 -157 -7 -192 58 -15 28 -17 72 -18 379 0 228 3 349 10 351 5 2
94 3 198 2 121 0 187 3 188 10 5 38 4 102 -2 110 -4 6 -81 9 -198 9 -136 -1
-191 2 -192 10 -1 6 -2 63 -3 126 l-1 114 -77 1 c-72 1 -78 0 -79 -19z"/>
<path d="M5190 1990 c-61 -12 -125 -46 -169 -90 l-42 -42 7 43 c3 24 7 50 10
57 4 14 6 14 -83 15 l-68 1 -3 -522 c-1 -287 1 -522 5 -523 35 -4 143 -3 144
1 1 3 2 160 4 350 2 362 4 388 36 459 36 82 101 122 204 126 132 5 187 -47
186 -174 l0 -67 74 0 75 1 0 71 c0 193 -88 292 -267 299 -43 1 -94 -1 -113 -5z"/>
<path d="M9625 1986 c-72 -18 -128 -50 -165 -93 l-31 -38 6 58 c6 45 4 57 -6
58 -94 6 -139 3 -139 -11 -1 -24 -1 -972 -1 -1005 l1 -30 70 1 c39 1 73 4 77
7 3 4 7 170 8 369 1 313 4 369 19 407 39 104 105 152 218 156 129 6 191 -52
187 -175 l-3 -65 75 0 74 0 -2 90 c-2 136 -46 215 -141 257 -55 25 -176 31
-247 14z"/>
<path d="M4109 1986 c-2 -2 -28 -7 -58 -11 -30 -4 -77 -17 -105 -29 -127 -56
-167 -164 -171 -466 -7 -472 69 -565 465 -564 381 0 454 87 454 534 0 209 -12
294 -55 385 -51 108 -139 144 -375 150 -83 3 -153 3 -155 1z m299 -146 c74
-23 95 -57 118 -190 3 -19 6 -107 5 -195 0 -366 -25 -403 -272 -410 -191 -6
-271 25 -298 115 -40 135 -30 543 16 621 18 31 58 54 119 68 55 13 261 7 312
-9z"/>
<path d="M6330 1983 c-148 -19 -210 -47 -245 -108 -30 -52 -36 -86 -37 -189 0
-146 53 -226 172 -260 74 -21 109 -25 285 -32 175 -7 210 -18 239 -77 20 -41
24 -136 7 -179 -28 -73 -85 -91 -281 -92 -217 0 -260 23 -268 149 l-4 65 -37
1 c-125 4 -129 2 -125 -59 16 -224 94 -279 404 -286 299 -7 423 37 465 165 52
155 6 334 -100 393 -64 36 -99 42 -290 51 -166 8 -200 12 -236 30 -50 26 -64
59 -64 151 0 135 29 151 261 151 159 0 226 -13 244 -48 6 -10 13 -39 16 -64 4
-28 12 -45 20 -46 8 0 30 -1 49 -1 101 0 94 -4 89 53 -10 119 -77 186 -221
220 -45 11 -288 19 -343 12z"/>
<path d="M7530 1983 c-85 -13 -164 -53 -212 -107 l-26 -31 1 65 2 64 -45 -1
c-25 -1 -59 -2 -76 -2 l-31 -1 0 -745 0 -745 78 0 77 0 0 258 c0 141 1 268 1
282 l1 25 31 -33 c60 -64 146 -93 291 -98 211 -6 335 60 383 205 29 89 38 163
39 316 1 350 -66 490 -259 540 -32 8 -213 14 -255 8z m222 -146 c99 -42 129
-136 129 -397 -1 -312 -49 -387 -256 -396 -83 -4 -166 10 -216 38 -79 44 -110
164 -105 403 7 262 35 325 163 360 65 18 236 13 285 -8z"/>
<path d="M8484 1979 c-237 -31 -299 -143 -298 -534 0 -390 60 -492 306 -524
72 -9 289 -7 338 3 118 25 178 61 214 126 23 41 31 68 51 165 4 17 8 102 10
190 5 240 -21 398 -78 477 -25 34 -98 73 -167 88 -62 14 -299 20 -376 9z m337
-138 c95 -30 120 -105 122 -376 2 -292 -23 -373 -125 -405 -62 -19 -257 -21
-326 -3 -120 31 -144 95 -144 388 0 225 15 315 60 360 14 14 27 25 31 25 3 1
29 7 56 14 59 16 271 14 326 -3z"/>
</g>
</svg>
